<?xml version="1.0" encoding="UTF-8" standalone="no"?>
<!-- Created with Inkscape (http://www.inkscape.org/) -->

<svg
   width="210mm"
   height="297mm"
   viewBox="0 0 210 297"
   version="1.1"
   id="svg1"
   xml:space="preserve"
   inkscape:version="1.4 (86a8ad7, 2024-10-11)"
   sodipodi:docname="Logo.svg"
   xmlns:inkscape="http://www.inkscape.org/namespaces/inkscape"
   xmlns:sodipodi="http://sodipodi.sourceforge.net/DTD/sodipodi-0.dtd"
   xmlns="http://www.w3.org/2000/svg"
   xmlns:svg="http://www.w3.org/2000/svg"><sodipodi:namedview
     id="namedview1"
     pagecolor="#ffffff"
     bordercolor="#000000"
     borderopacity="0.25"
     inkscape:showpageshadow="2"
     inkscape:pageopacity="0.0"
     inkscape:pagecheckerboard="0"
     inkscape:deskcolor="#d1d1d1"
     inkscape:document-units="mm"
     inkscape:zoom="8.3553674"
     inkscape:cx="380.83305"
     inkscape:cy="999.05841"
     inkscape:window-width="1920"
     inkscape:window-height="1009"
     inkscape:window-x="-8"
     inkscape:window-y="-8"
     inkscape:window-maximized="1"
     inkscape:current-layer="layer1" /><defs
     id="defs1" /><g
     inkscape:label="Ebene 1"
     inkscape:groupmode="layer"
     id="layer1"><path
       d="m 87.139389,271.51905 c -0.01027,-0.003 -0.262367,-0.12898 -0.560213,-0.27825 -1.304504,-0.65378 -1.449112,-0.72888 -1.501594,-0.77977 -0.09856,-0.0956 -0.09271,0.0143 -0.08899,-1.67268 l 0.0034,-1.49943 0.02694,-0.0498 c 0.0558,-0.10308 0.09459,-0.12605 0.874888,-0.51819 l 0.752452,-0.37815 h 1.550644 c 1.541066,0 1.550915,1.6e-4 1.594216,0.0256 0.02396,0.0141 0.05753,0.0505 0.07459,0.0809 l 0.03101,0.0553 -0.0024,0.3887 c -0.0019,0.31811 -0.0059,0.39527 -0.02126,0.42492 -0.01032,0.0199 -0.115149,0.1288 -0.232998,0.24195 l -0.214258,0.2057 0.0339,0.29061 c 0.102191,0.87566 0.183035,1.55124 0.188521,1.57544 0.0034,0.0151 0.174768,0.21117 0.38075,0.43572 0.205988,0.22453 0.383808,0.42505 0.395162,0.44559 0.01809,0.0327 0.0206,0.0885 0.02031,0.44817 -3.22e-4,0.35583 -0.0028,0.41582 -0.0206,0.44817 -0.02619,0.0482 -0.0696,0.0883 -0.113729,0.105 -0.0365,0.0139 -3.13318,0.0182 -3.170617,0.004 z m 3.087393,-0.51406 v -0.29877 h -1.456555 -1.456549 v 0.29877 0.29879 h 1.456549 1.456555 z M 86.93772,270.4536 c -0.08377,-0.0973 -0.214253,-0.2469 -0.28997,-0.33249 -0.269136,-0.30424 -0.303897,-0.34763 -0.316439,-0.39504 -0.0068,-0.0258 -0.03494,-0.25139 -0.06253,-0.5013 -0.0907,-0.82238 -0.124183,-1.12427 -0.145233,-1.30945 l -0.02079,-0.18279 0.03243,-0.0553 c 0.01785,-0.0305 0.127838,-0.14651 0.244427,-0.25791 l 0.211971,-0.20252 v -0.29692 c 0,-0.16329 -0.0019,-0.2969 -0.0047,-0.2969 -0.01472,0 -1.343308,0.67748 -1.358639,0.6928 -0.02793,0.0279 -0.02813,2.91266 -1.61e-4,2.96668 0.01539,0.0298 0.153467,0.10387 0.843431,0.45293 0.453786,0.22958 0.867076,0.43987 0.918428,0.46731 l 0.09337,0.0499 0.0034,-0.311 0.0034,-0.31102 z m 3.113333,-0.0306 c -0.03007,-0.0325 -0.162869,-0.1776 -0.295144,-0.3224 -0.188493,-0.20633 -0.248304,-0.26441 -0.276613,-0.26857 l -0.03613,-0.005 0.02458,0.0398 c 0.01349,0.0219 0.02457,0.0532 0.02457,0.0698 0,0.0165 0.01174,0.0634 0.02609,0.10434 0.04857,0.13815 0.0064,0.23784 -0.128312,0.30314 -0.102036,0.0494 -0.221091,0.0688 -0.370079,0.0602 -0.228164,-0.0134 -0.374571,-0.0904 -0.412159,-0.21694 -0.01378,-0.0464 -0.01245,-0.0617 0.01117,-0.1316 0.01472,-0.0436 0.02676,-0.0956 0.0268,-0.11561 2.5e-5,-0.0201 0.01112,-0.0547 0.02471,-0.0769 l 0.02467,-0.0405 h -0.335937 c -0.184766,0 -0.335942,-0.003 -0.335942,-0.007 0,-0.003 0.01373,-0.027 0.03045,-0.0517 0.01676,-0.0247 0.03741,-0.072 0.04593,-0.10515 l 0.01549,-0.0603 h 0.651794 0.651789 l -0.0066,-0.0405 c -0.01548,-0.0938 -0.08805,-0.70462 -0.162376,-1.36629 -0.01733,-0.15405 -0.0347,-0.30111 -0.03868,-0.32678 l -0.0073,-0.0466 h -1.430556 c -0.915539,0 -1.430565,0.004 -1.430565,0.0121 0,0.007 0.02486,0.23772 0.05523,0.51352 0.03035,0.27581 0.07361,0.67093 0.09608,0.87805 l 0.04086,0.37659 h 0.370528 0.370532 l 0.0082,0.0342 c 0.01208,0.0501 0.06166,0.14509 0.08656,0.16573 0.0189,0.0157 -0.02216,0.0186 -0.330719,0.0241 l -0.352304,0.006 0.146549,0.16807 c 0.0806,0.0924 0.208856,0.23932 0.285012,0.32642 l 0.138457,0.15834 1.424023,3.3e-4 1.424023,3.2e-4 z m -2.521795,-0.0841 c -0.19318,-0.0421 -0.2823,-0.12559 -0.228382,-0.21426 0.03007,-0.0494 0.09916,-0.0856 0.212639,-0.11123 l 0.08715,-0.0197 -0.0047,-0.0875 c -0.0043,-0.0861 -0.0053,-0.0879 -0.04886,-0.11027 -0.05527,-0.0284 -0.128728,-0.11283 -0.147454,-0.16957 -0.0078,-0.0236 -0.01203,-0.0808 -0.0094,-0.12728 0.0094,-0.1658 0.119623,-0.2754 0.286522,-0.28483 0.114818,-0.007 0.179753,0.0189 0.250782,0.0978 0.0648,0.0721 0.08939,0.14657 0.07962,0.24125 -0.01136,0.11019 -0.07633,0.20606 -0.16787,0.24777 -0.02694,0.0123 -0.0286,0.0193 -0.02523,0.10646 l 0.0039,0.0933 0.06847,0.0143 c 0.19702,0.0412 0.284435,0.15248 0.185246,0.23594 -0.05801,0.0488 -0.09549,0.065 -0.200742,0.0867 -0.113937,0.0235 -0.236311,0.0239 -0.341581,8.2e-4 z m 0.176566,-1.28679 c -0.120504,-0.0346 -0.230006,-0.10102 -0.271783,-0.16478 -0.02845,-0.0435 -0.0084,-0.10259 0.04191,-0.1234 0.03125,-0.013 0.04171,-0.0115 0.07701,0.0112 0.02244,0.0143 0.08249,0.047 0.133416,0.0723 0.08383,0.0418 0.102077,0.0462 0.192963,0.0461 0.08238,-5e-5 0.113397,-0.006 0.173044,-0.0334 0.03995,-0.0183 0.08896,-0.047 0.108861,-0.0639 0.05142,-0.0433 0.08214,-0.0502 0.118422,-0.0263 0.08173,0.0536 0.06155,0.12451 -0.05812,0.20442 -0.145933,0.0974 -0.343465,0.12723 -0.515722,0.0776 z m -0.626446,-0.47077 c -0.02273,-0.0112 -0.05634,-0.0401 -0.0747,-0.0641 -0.02854,-0.0375 -0.03333,-0.0558 -0.03333,-0.12782 0,-0.0906 0.01771,-0.12775 0.08463,-0.17771 0.05201,-0.0388 0.163803,-0.0412 0.226342,-0.005 0.06348,0.0369 0.105666,0.11028 0.105666,0.18388 0,0.15492 -0.169114,0.25943 -0.308586,0.19069 z m 1.386781,-0.007 c -0.05787,-0.0338 -0.106874,-0.118 -0.106481,-0.18298 3.28e-4,-0.0635 0.03958,-0.14176 0.08853,-0.17668 0.05737,-0.0409 0.190425,-0.043 0.2433,-0.003 0.06379,0.0472 0.09117,0.10113 0.09117,0.17937 0,0.12229 -0.07376,0.20068 -0.195907,0.20823 -0.0576,0.003 -0.08138,-8.2e-4 -0.120613,-0.0241 z m 0.735734,1.6695 c 0.08573,-0.0149 0.156894,-0.0545 0.163963,-0.0912 0.0034,-0.0184 -3.26e-4,-0.0211 -0.01861,-0.0135 -0.11694,0.0497 -0.343517,0.0634 -0.458771,0.0278 -0.03423,-0.0106 -0.07542,-0.0234 -0.09151,-0.0284 -0.02391,-0.007 -0.02845,-0.005 -0.0249,0.013 0.0071,0.036 0.06107,0.0675 0.147604,0.0863 0.100682,0.0218 0.180611,0.0235 0.282201,0.005 z m 0.03674,-0.2288 c 0.03418,-0.0102 0.07474,-0.0319 0.09017,-0.0483 l 0.02803,-0.0298 -0.03362,-0.0264 c -0.107011,-0.0842 -0.40073,-0.0848 -0.507182,-8.2e-4 -0.01941,0.0152 -0.02941,0.0328 -0.02509,0.0441 0.0075,0.0196 0.06294,0.0522 0.11611,0.0684 0.05576,0.0169 0.266045,0.0126 0.331567,-0.007 z m 0.427911,-3.14363 v -0.29878 h -1.425429 -1.425428 v 0.29878 0.29878 h 1.425428 1.425429 z m 8.421177,4.54309 c -0.05681,-0.0165 -0.09473,-0.0639 -0.100863,-0.12598 -0.0057,-0.062 0.01181,-0.10233 0.06197,-0.13962 0.03107,-0.0231 0.05722,-0.0267 0.227874,-0.0324 l 0.19279,-0.006 0.08211,-0.15602 0.08212,-0.15602 -0.253837,-0.49371 -0.253836,-0.49372 -0.05025,-0.0126 c -0.147809,-0.0371 -0.17473,-0.22695 -0.04082,-0.28772 0.04664,-0.0211 0.08246,-0.0243 0.281798,-0.0245 0.183198,-3.1e-4 0.23667,0.003 0.270042,0.0195 0.04894,0.0232 0.07575,0.0601 0.08616,0.11848 0.01418,0.0798 -0.06173,0.17498 -0.141727,0.17785 -0.02099,8.2e-4 -0.03828,0.003 -0.03828,0.007 -1.6e-5,0.003 0.05542,0.10932 0.123004,0.23653 0.06763,0.12721 0.140997,0.26714 0.162958,0.31095 l 0.03992,0.0796 0.160721,-0.31332 c 0.08839,-0.17233 0.16072,-0.31603 0.16072,-0.31932 0,-0.003 -0.01877,-0.006 -0.04181,-0.006 -0.06009,0 -0.12284,-0.0468 -0.14394,-0.10739 -0.01631,-0.0468 -0.01566,-0.0547 0.0099,-0.10736 0.04345,-0.0897 0.06829,-0.0965 0.352157,-0.0965 0.271584,0 0.305555,0.009 0.349379,0.0881 0.04984,0.0904 -0.0016,0.19484 -0.112274,0.22614 l -0.05509,0.0157 -0.328212,0.64113 c -0.18051,0.35262 -0.328369,0.64533 -0.328573,0.65047 -1.64e-4,0.005 0.01976,0.009 0.04443,0.009 0.135407,0 0.21098,0.12985 0.138399,0.2378 -0.01623,0.0242 -0.04689,0.0487 -0.07165,0.0571 -0.05164,0.0178 -0.805612,0.0204 -0.865462,0.003 z m -4.838974,-0.56043 c -0.1278,-0.0301 -0.246449,-0.12964 -0.303737,-0.25479 -0.04811,-0.10509 -0.05803,-0.20624 -0.05087,-0.5191 l 0.0065,-0.28323 h -0.05905 c -0.170652,0 -0.238669,-0.19017 -0.101163,-0.28284 0.04005,-0.027 0.05339,-0.0284 0.27059,-0.0284 h 0.228467 v 0.46723 c 0,0.53221 4.74e-4,0.53619 0.08596,0.57034 0.120167,0.0481 0.332021,-0.003 0.460029,-0.11054 l 0.03911,-0.0329 -1.8e-5,-0.28833 -1.4e-5,-0.28834 -0.08402,-4.7e-4 c -0.09865,-4.7e-4 -0.154474,-0.0253 -0.190333,-0.0841 -0.04725,-0.0775 -0.01761,-0.17221 0.06627,-0.21204 0.03632,-0.0173 0.08567,-0.0207 0.287801,-0.0207 h 0.243991 v 0.50966 0.50965 l 0.05913,0.009 c 0.159033,0.0238 0.202185,0.21957 0.06474,0.29361 -0.03758,0.0202 -0.06769,0.0227 -0.242138,0.0198 l -0.199188,-0.003 -0.0039,-0.0389 -0.0039,-0.0389 -0.06469,0.0349 c -0.139101,0.0752 -0.363852,0.1073 -0.509795,0.0729 z m 1.746041,-0.005 c -0.130466,-0.0357 -0.223624,-0.0915 -0.330618,-0.19782 -0.111304,-0.11062 -0.153825,-0.18485 -0.18733,-0.32706 -0.07756,-0.32923 0.152659,-0.72352 0.490682,-0.84031 0.07098,-0.0245 0.107214,-0.0287 0.245129,-0.0281 0.175557,4.6e-4 0.272363,0.0236 0.370096,0.0873 0.02555,0.0166 0.04931,0.0303 0.05293,0.0303 0.0037,0 0.0065,-0.0785 0.0065,-0.1743 v -0.17427 h -0.05557 c -0.111121,0 -0.180932,-0.062 -0.180932,-0.16046 0,-0.0698 0.04906,-0.12433 0.124846,-0.13895 0.03064,-0.006 0.141095,-0.0111 0.245516,-0.0112 l 0.189848,-4.8e-4 0.0012,0.0779 c 4.79e-4,0.0428 0.0031,0.35231 0.0048,0.68781 0.0019,0.33551 0.0043,0.66184 0.0048,0.72517 l 0.0012,0.11515 h 0.07374 c 0.06098,0 0.0803,0.005 0.11168,0.032 0.07329,0.0616 0.07358,0.17303 4.73e-4,0.23443 -0.05005,0.0421 -0.08378,0.0466 -0.31672,0.0423 l -0.199189,-0.003 -0.0037,-0.0397 -0.0037,-0.0396 -0.04471,0.0303 c -0.08392,0.0569 -0.194324,0.0831 -0.370914,0.0879 -0.117194,0.003 -0.180728,-8.2e-4 -0.23031,-0.0143 z m 0.413028,-0.32902 c 0.0787,-0.0296 0.156564,-0.0992 0.192181,-0.17181 0.03254,-0.0663 0.03881,-0.24308 0.01154,-0.32507 -0.02745,-0.0826 -0.103863,-0.16678 -0.189487,-0.20866 -0.0914,-0.0447 -0.239411,-0.0549 -0.346288,-0.0239 -0.201399,0.0585 -0.331158,0.33913 -0.245927,0.5318 0.04661,0.10543 0.162392,0.19689 0.281249,0.22221 0.07828,0.0166 0.217532,0.005 0.296701,-0.0246 z m 1.371522,0.32333 c -0.158818,-0.0417 -0.281305,-0.11938 -0.370035,-0.23483 -0.138388,-0.18006 -0.184887,-0.37401 -0.137761,-0.57456 0.05822,-0.24784 0.255415,-0.46975 0.488661,-0.54998 0.0687,-0.0237 0.109438,-0.0286 0.232681,-0.0288 0.165959,-1.7e-4 0.262114,0.0239 0.370463,0.0926 0.04443,0.0283 0.05566,0.0315 0.05246,0.0151 -0.0025,-0.0115 -0.0041,-0.0921 -0.0049,-0.17944 l -8.2e-4,-0.15873 h -0.05664 c -0.137704,0 -0.218697,-0.11293 -0.161009,-0.22449 0.03513,-0.0679 0.07547,-0.0784 0.326574,-0.0843 l 0.227202,-0.005 v 0.80449 0.80448 h 0.06911 c 0.08569,0 0.13316,0.0236 0.15954,0.0791 0.02705,0.0571 0.02566,0.10506 -0.0049,0.15503 -0.04197,0.0689 -0.08314,0.0781 -0.332975,0.0743 l -0.220685,-0.003 4.1e-5,-0.0391 c 3.2e-5,-0.039 0,-0.0391 -0.03115,-0.018 -0.139098,0.0943 -0.407543,0.12794 -0.605737,0.076 z m 0.333651,-0.30347 c 0.199795,-0.0471 0.307248,-0.18809 0.294149,-0.38614 -0.0082,-0.12155 -0.0464,-0.205 -0.129123,-0.28055 -0.08091,-0.0739 -0.153757,-0.10066 -0.274434,-0.10066 -0.212882,0 -0.364276,0.12801 -0.403712,0.34136 -0.02211,0.11961 0.0056,0.21982 0.0844,0.30724 0.100349,0.11107 0.266186,0.15702 0.428725,0.11875 z m -6.147581,0.27717 c -0.09935,-0.0288 -0.139385,-0.16617 -0.07182,-0.24645 0.03376,-0.0401 0.09507,-0.0634 0.167315,-0.0634 l 0.0436,-5e-5 -0.0015,-0.42016 c -9.01e-4,-0.23108 -0.0024,-0.48878 -0.0034,-0.57267 l -0.0019,-0.15249 h -0.0502 c -0.144944,0 -0.228699,-0.11852 -0.167452,-0.23695 0.03973,-0.0768 0.05478,-0.0792 0.535537,-0.0845 0.517129,-0.005 0.617824,0.003 0.749114,0.0655 0.299655,0.14231 0.390967,0.49397 0.194979,0.75093 l -0.03172,0.0416 0.0816,0.0748 c 0.05777,0.0529 0.09354,0.099 0.122498,0.15786 0.0384,0.078 0.0409,0.091 0.04081,0.21403 -8.5e-5,0.11256 -0.0043,0.13936 -0.02954,0.19048 -0.07829,0.15814 -0.232794,0.26109 -0.424743,0.28303 -0.132928,0.0151 -1.100395,0.014 -1.153627,-8.2e-4 z m 1.148987,-0.32847 c 0.196712,-0.0584 0.174247,-0.27194 -0.03892,-0.36997 -0.05814,-0.0267 -0.08088,-0.0289 -0.345462,-0.0325 l -0.283223,-0.003 v 0.21248 0.21248 h 0.302748 c 0.231218,0 0.31742,-0.004 0.36487,-0.0185 z m -0.131144,-0.75832 c 0.03144,-0.0116 0.07579,-0.0403 0.09854,-0.0636 0.05427,-0.056 0.06543,-0.15132 0.02523,-0.21537 -0.04907,-0.0782 -0.09677,-0.089 -0.395697,-0.0893 l -0.264545,-3.1e-4 v 0.19088 c 0,0.10499 0.0043,0.19517 0.0093,0.20039 0.0052,0.005 0.112977,0.007 0.239645,0.003 0.17403,-0.004 0.244286,-0.0107 0.287493,-0.0266 z m 2.257341,-0.93272 c -0.04513,-0.0388 -0.04853,-0.10761 -0.0074,-0.14883 0.02395,-0.024 0.04471,-0.0286 0.154378,-0.0339 l 0.126706,-0.006 0.04704,-0.0809 c 0.02591,-0.0445 0.04692,-0.0921 0.04679,-0.10582 -1.59e-4,-0.0137 -0.06865,-0.15935 -0.152259,-0.32367 -0.136864,-0.26902 -0.156582,-0.30124 -0.197985,-0.3234 -0.07848,-0.0421 -0.09194,-0.10081 -0.03586,-0.15686 l 0.03642,-0.0364 h 0.163362 c 0.156847,0 0.164578,8.2e-4 0.19392,0.0305 0.05619,0.0562 0.02948,0.14347 -0.05005,0.16344 -0.01726,0.004 -0.03145,0.0102 -0.03145,0.0131 0,0.007 0.06945,0.14478 0.14096,0.27798 l 0.06328,0.11781 0.0967,-0.19874 0.09671,-0.19875 -0.03212,-0.009 c -0.05319,-0.0143 -0.07921,-0.0466 -0.07921,-0.0982 0,-0.0359 0.0078,-0.053 0.0328,-0.0728 0.02948,-0.0233 0.04968,-0.0258 0.199746,-0.0258 0.160661,0 0.16811,8.2e-4 0.197513,0.0305 0.05521,0.0552 0.0358,0.12883 -0.04422,0.16742 -0.03659,0.0177 -0.0638,0.0642 -0.244423,0.41826 -0.111777,0.2191 -0.203327,0.40258 -0.20345,0.40771 -1.6e-4,0.005 0.01069,0.009 0.02401,0.009 0.01333,0 0.03961,0.0134 0.05852,0.0295 0.04434,0.0381 0.04741,0.1073 0.0066,0.14817 -0.02671,0.0267 -0.03752,0.0279 -0.299807,0.0316 l -0.272094,0.003 z m 4.843759,-0.33185 c -0.255566,-0.0566 -0.391424,-0.22679 -0.377185,-0.47258 0.01017,-0.17615 0.104199,-0.31279 0.268863,-0.39079 0.07927,-0.0376 0.09081,-0.0396 0.232809,-0.0396 0.126152,0 0.157409,0.003 0.200889,0.0257 0.04369,0.0219 0.05492,0.0233 0.07402,0.009 0.05345,-0.039 0.131964,-0.005 0.149351,0.0639 0.0041,0.0171 0.0049,0.0821 0.0033,0.14455 -0.0041,0.10642 -0.0066,0.1154 -0.03935,0.14356 -0.0623,0.0536 -0.131718,0.0299 -0.158622,-0.054 -0.02172,-0.0679 -0.05787,-0.10088 -0.134841,-0.12325 -0.192306,-0.0559 -0.359765,0.0426 -0.372537,0.21924 -0.0066,0.0978 0.0016,0.12842 0.05468,0.18683 0.04484,0.0497 0.108642,0.0779 0.212381,0.0938 0.07976,0.0123 0.194585,-0.0161 0.284339,-0.0703 0.08949,-0.054 0.126595,-0.0592 0.164894,-0.0236 0.03771,0.0351 0.04427,0.0672 0.02394,0.11614 -0.04197,0.10035 -0.203159,0.17079 -0.406466,0.1776 -0.07197,0.002 -0.153129,-4.8e-4 -0.180517,-0.007 z m -7.939086,-0.0222 c -0.04532,-0.003 -0.06453,-0.0117 -0.08404,-0.0364 -0.03442,-0.0438 -0.03234,-0.0976 0.0053,-0.13517 0.02703,-0.027 0.04138,-0.0305 0.12449,-0.0305 h 0.09394 v -0.36725 -0.36725 h -0.09337 -0.09337 v 0.0977 c 0,0.10931 -0.01634,0.17069 -0.05028,0.18887 -0.03721,0.02 -0.0935,0.0139 -0.128544,-0.0137 l -0.03281,-0.0258 v -0.22262 -0.22262 l 0.04645,-0.009 c 0.02557,-0.005 0.237037,-0.005 0.469959,-4.8e-4 0.232921,0.004 0.441702,0.007 0.463955,0.009 l 0.04043,9e-5 v 0.21603 c 0,0.21207 -4.73e-4,0.21666 -0.03054,0.24899 -0.03248,0.035 -0.08806,0.0437 -0.131584,0.0203 -0.03172,-0.0169 -0.04937,-0.0869 -0.04945,-0.19593 l -4.7e-5,-0.0903 -0.09648,-10e-6 h -0.09648 l 0.0034,0.36725 0.0034,0.36726 h 0.09066 c 0.07403,0 0.09566,0.005 0.117905,0.0254 0.03745,0.0348 0.03807,0.12281 9.01e-4,0.15632 -0.02386,0.0216 -0.04815,0.0238 -0.270771,0.0243 -0.134518,3.1e-4 -0.271016,-8.2e-4 -0.30333,-0.003 z m 0.98001,-0.003 c -0.04918,-0.0159 -0.06848,-0.0444 -0.06848,-0.10119 0,-0.0355 0.0078,-0.0527 0.03281,-0.0723 0.02869,-0.0225 0.05004,-0.0258 0.171175,-0.0258 h 0.138377 l -0.0019,-0.0529 c -9.02e-4,-0.0291 -0.0024,-0.13274 -0.0034,-0.23031 l -9.02e-4,-0.1774 h -0.1048 c -0.124561,0 -0.139504,-0.005 -0.163314,-0.0507 -0.02619,-0.0506 -0.02286,-0.0711 0.01818,-0.1121 l 0.03641,-0.0364 h 0.218818 0.218818 v 0.3299 0.3299 h 0.148486 c 0.145584,0 0.148992,4.8e-4 0.174288,0.0328 0.04946,0.0629 0.0169,0.16621 -0.05249,0.1665 -0.01515,7e-5 -0.184384,0.003 -0.376101,0.006 -0.209164,0.003 -0.363511,8.2e-4 -0.38591,-0.006 z m 1.061317,4.8e-4 c -0.06416,-0.0125 -0.09652,-0.0448 -0.09652,-0.0964 0,-0.0547 0.04659,-0.10332 0.09903,-0.10332 h 0.03793 v -0.23007 -0.23007 l -0.03423,-0.009 c -0.05446,-0.0129 -0.07781,-0.0408 -0.07781,-0.093 0,-0.0359 0.0077,-0.053 0.03281,-0.0727 0.02822,-0.0222 0.05021,-0.0258 0.15678,-0.0258 0.1114,0 0.12461,0.002 0.130178,0.0237 0.0059,0.0226 0.0094,0.0222 0.07664,-0.009 0.191324,-0.0884 0.414901,-0.0216 0.492297,0.147 0.02221,0.0484 0.02632,0.0863 0.03035,0.27701 0.0043,0.20125 0.0066,0.22097 0.02666,0.22097 0.01212,0 0.03679,0.0116 0.05482,0.0258 0.04546,0.0357 0.04578,0.10703 4.74e-4,0.14943 -0.02841,0.0267 -0.04559,0.0307 -0.150219,0.0345 -0.19908,0.007 -0.2534,-0.0161 -0.2534,-0.10926 0,-0.0379 0.0074,-0.0547 0.03281,-0.0747 0.01803,-0.0142 0.04276,-0.0258 0.05487,-0.0258 0.02003,0 0.02221,-0.0165 0.02367,-0.17741 0.0019,-0.19753 -0.0097,-0.25018 -0.06019,-0.27628 -0.09336,-0.0483 -0.204033,-0.0247 -0.287247,0.0611 l -0.0402,0.0415 0.0091,0.17554 c 0.009,0.17485 0.0091,0.17553 0.03915,0.17553 0.04304,0 0.09121,0.0527 0.09121,0.0999 0,0.0572 -0.01965,0.0842 -0.07173,0.0987 -0.0519,0.0143 -0.245294,0.0151 -0.317263,8.2e-4 z m 3.221181,0.003 c -0.106828,-0.0283 -0.107042,-0.1778 -3.25e-4,-0.19783 0.03894,-0.007 0.04575,-0.0157 0.0794,-0.097 0.05865,-0.1417 0.250771,-0.62717 0.250771,-0.63366 0,-0.003 -0.03673,-0.009 -0.08152,-0.0125 -0.09964,-0.007 -0.130115,-0.0307 -0.130115,-0.0973 0,-0.0369 0.008,-0.0536 0.03832,-0.079 0.03801,-0.032 0.03998,-0.0322 0.256029,-0.0322 0.120866,0 0.228038,0.005 0.240909,0.0124 0.01541,0.009 0.08442,0.16687 0.205238,0.47164 0.179677,0.45326 0.182562,0.45933 0.221042,0.46703 0.05755,0.0115 0.08421,0.0415 0.08421,0.0944 0,0.033 -0.0089,0.0541 -0.03222,0.0759 -0.03099,0.0291 -0.03853,0.0302 -0.215989,0.0302 -0.201997,0 -0.244,-0.011 -0.258923,-0.0676 -0.02039,-0.0774 0.02684,-0.13778 0.10783,-0.13778 h 0.04754 l -0.02014,-0.0561 -0.02014,-0.056 h -0.227043 -0.227044 l -0.02511,0.0494 c -0.01382,0.0271 -0.02512,0.0523 -0.02512,0.056 0,0.003 0.02199,0.007 0.04876,0.007 0.06615,0 0.08592,0.009 0.107302,0.0507 0.02671,0.0516 0.02235,0.0905 -0.01394,0.12454 -0.03059,0.0287 -0.04041,0.0303 -0.208521,0.0324 -0.09703,8.1e-4 -0.187626,-8.2e-4 -0.20132,-0.004 z m 0.676495,-0.53337 c 0.0062,-0.006 -0.125423,-0.34216 -0.133965,-0.34216 -0.0037,0 -0.03832,0.0798 -0.07629,0.17739 l -0.06908,0.17741 0.137551,-0.004 c 0.07565,-0.002 0.139456,-0.006 0.14179,-0.009 z m 0.615456,0.53169 c -0.09442,-0.007 -0.136776,-0.10677 -0.07247,-0.17105 0.02623,-0.0262 0.04214,-0.0305 0.112043,-0.0305 h 0.08148 v -0.22351 -0.22352 l -0.04673,-0.007 c -0.103682,-0.0171 -0.140047,-0.0453 -0.140047,-0.10849 0,-0.0353 0.03951,-0.0811 0.07812,-0.0907 0.01525,-0.003 0.09209,-0.005 0.170836,-0.003 l 0.143162,0.003 0.0033,0.0524 0.0033,0.0523 0.07902,-0.0541 c 0.100247,-0.0686 0.153113,-0.0859 0.243622,-0.0793 0.141317,0.0102 0.259886,0.12192 0.223268,0.21033 -0.01623,0.0391 -0.06796,0.0735 -0.110519,0.0735 -0.01377,0 -0.04418,-0.0168 -0.06755,-0.0373 -0.05492,-0.0482 -0.09876,-0.0479 -0.17678,8.2e-4 -0.172475,0.10938 -0.19219,0.14271 -0.192305,0.32515 l -4.9e-5,0.10893 h 0.168623 c 0.162442,0 0.169762,8.2e-4 0.199191,0.0305 0.03877,0.0388 0.03984,0.0946 0.0025,0.13645 l -0.02804,0.0315 -0.311235,0.003 c -0.171173,0.002 -0.334877,0.002 -0.36379,-3.3e-4 z m -5.356607,-1.11662 v -0.10581 h 0.124496 0.12449 v 0.10581 0.10582 h -0.12449 -0.124496 z"
       style="fill:#000000;stroke-width:0.999999"
       id="path1" /></g></svg>
